%TF.GenerationSoftware,KiCad,Pcbnew,9.0.6*%
%TF.CreationDate,2026-01-01T03:20:53+05:30*%
%TF.ProjectId,Stem_Toy,5374656d-5f54-46f7-992e-6b696361645f,rev?*%
%TF.SameCoordinates,Original*%
%TF.FileFunction,Legend,Top*%
%TF.FilePolarity,Positive*%
%FSLAX46Y46*%
G04 Gerber Fmt 4.6, Leading zero omitted, Abs format (unit mm)*
G04 Created by KiCad (PCBNEW 9.0.6) date 2026-01-01 03:20:53*
%MOMM*%
%LPD*%
G01*
G04 APERTURE LIST*
%ADD10C,0.150000*%
%ADD11C,0.120000*%
G04 APERTURE END LIST*
D10*
X106434819Y-108736904D02*
X106434819Y-108165476D01*
X107434819Y-108451190D02*
X106434819Y-108451190D01*
X107434819Y-107832142D02*
X106434819Y-107832142D01*
X106434819Y-107832142D02*
X106434819Y-107451190D01*
X106434819Y-107451190D02*
X106482438Y-107355952D01*
X106482438Y-107355952D02*
X106530057Y-107308333D01*
X106530057Y-107308333D02*
X106625295Y-107260714D01*
X106625295Y-107260714D02*
X106768152Y-107260714D01*
X106768152Y-107260714D02*
X106863390Y-107308333D01*
X106863390Y-107308333D02*
X106911009Y-107355952D01*
X106911009Y-107355952D02*
X106958628Y-107451190D01*
X106958628Y-107451190D02*
X106958628Y-107832142D01*
X106434819Y-106927380D02*
X106434819Y-106308333D01*
X106434819Y-106308333D02*
X106815771Y-106641666D01*
X106815771Y-106641666D02*
X106815771Y-106498809D01*
X106815771Y-106498809D02*
X106863390Y-106403571D01*
X106863390Y-106403571D02*
X106911009Y-106355952D01*
X106911009Y-106355952D02*
X107006247Y-106308333D01*
X107006247Y-106308333D02*
X107244342Y-106308333D01*
X107244342Y-106308333D02*
X107339580Y-106355952D01*
X107339580Y-106355952D02*
X107387200Y-106403571D01*
X107387200Y-106403571D02*
X107434819Y-106498809D01*
X107434819Y-106498809D02*
X107434819Y-106784523D01*
X107434819Y-106784523D02*
X107387200Y-106879761D01*
X107387200Y-106879761D02*
X107339580Y-106927380D01*
X98204819Y-108736904D02*
X98204819Y-108165476D01*
X99204819Y-108451190D02*
X98204819Y-108451190D01*
X99204819Y-107832142D02*
X98204819Y-107832142D01*
X98204819Y-107832142D02*
X98204819Y-107451190D01*
X98204819Y-107451190D02*
X98252438Y-107355952D01*
X98252438Y-107355952D02*
X98300057Y-107308333D01*
X98300057Y-107308333D02*
X98395295Y-107260714D01*
X98395295Y-107260714D02*
X98538152Y-107260714D01*
X98538152Y-107260714D02*
X98633390Y-107308333D01*
X98633390Y-107308333D02*
X98681009Y-107355952D01*
X98681009Y-107355952D02*
X98728628Y-107451190D01*
X98728628Y-107451190D02*
X98728628Y-107832142D01*
X98300057Y-106879761D02*
X98252438Y-106832142D01*
X98252438Y-106832142D02*
X98204819Y-106736904D01*
X98204819Y-106736904D02*
X98204819Y-106498809D01*
X98204819Y-106498809D02*
X98252438Y-106403571D01*
X98252438Y-106403571D02*
X98300057Y-106355952D01*
X98300057Y-106355952D02*
X98395295Y-106308333D01*
X98395295Y-106308333D02*
X98490533Y-106308333D01*
X98490533Y-106308333D02*
X98633390Y-106355952D01*
X98633390Y-106355952D02*
X99204819Y-106927380D01*
X99204819Y-106927380D02*
X99204819Y-106308333D01*
X87073866Y-98769523D02*
X87073866Y-98007619D01*
X87454819Y-98388571D02*
X86692914Y-98388571D01*
X86931009Y-97198095D02*
X86978628Y-97055238D01*
X86978628Y-97055238D02*
X87026247Y-97007619D01*
X87026247Y-97007619D02*
X87121485Y-96960000D01*
X87121485Y-96960000D02*
X87264342Y-96960000D01*
X87264342Y-96960000D02*
X87359580Y-97007619D01*
X87359580Y-97007619D02*
X87407200Y-97055238D01*
X87407200Y-97055238D02*
X87454819Y-97150476D01*
X87454819Y-97150476D02*
X87454819Y-97531428D01*
X87454819Y-97531428D02*
X86454819Y-97531428D01*
X86454819Y-97531428D02*
X86454819Y-97198095D01*
X86454819Y-97198095D02*
X86502438Y-97102857D01*
X86502438Y-97102857D02*
X86550057Y-97055238D01*
X86550057Y-97055238D02*
X86645295Y-97007619D01*
X86645295Y-97007619D02*
X86740533Y-97007619D01*
X86740533Y-97007619D02*
X86835771Y-97055238D01*
X86835771Y-97055238D02*
X86883390Y-97102857D01*
X86883390Y-97102857D02*
X86931009Y-97198095D01*
X86931009Y-97198095D02*
X86931009Y-97531428D01*
X87169104Y-96579047D02*
X87169104Y-96102857D01*
X87454819Y-96674285D02*
X86454819Y-96340952D01*
X86454819Y-96340952D02*
X87454819Y-96007619D01*
X86454819Y-95817142D02*
X86454819Y-95245714D01*
X87454819Y-95531428D02*
X86454819Y-95531428D01*
X87073866Y-94912380D02*
X87073866Y-94150476D01*
X101880476Y-91124819D02*
X101880476Y-90124819D01*
X102928094Y-91029580D02*
X102880475Y-91077200D01*
X102880475Y-91077200D02*
X102737618Y-91124819D01*
X102737618Y-91124819D02*
X102642380Y-91124819D01*
X102642380Y-91124819D02*
X102499523Y-91077200D01*
X102499523Y-91077200D02*
X102404285Y-90981961D01*
X102404285Y-90981961D02*
X102356666Y-90886723D01*
X102356666Y-90886723D02*
X102309047Y-90696247D01*
X102309047Y-90696247D02*
X102309047Y-90553390D01*
X102309047Y-90553390D02*
X102356666Y-90362914D01*
X102356666Y-90362914D02*
X102404285Y-90267676D01*
X102404285Y-90267676D02*
X102499523Y-90172438D01*
X102499523Y-90172438D02*
X102642380Y-90124819D01*
X102642380Y-90124819D02*
X102737618Y-90124819D01*
X102737618Y-90124819D02*
X102880475Y-90172438D01*
X102880475Y-90172438D02*
X102928094Y-90220057D01*
X104594761Y-90124819D02*
X104118571Y-90124819D01*
X104118571Y-90124819D02*
X104070952Y-90601009D01*
X104070952Y-90601009D02*
X104118571Y-90553390D01*
X104118571Y-90553390D02*
X104213809Y-90505771D01*
X104213809Y-90505771D02*
X104451904Y-90505771D01*
X104451904Y-90505771D02*
X104547142Y-90553390D01*
X104547142Y-90553390D02*
X104594761Y-90601009D01*
X104594761Y-90601009D02*
X104642380Y-90696247D01*
X104642380Y-90696247D02*
X104642380Y-90934342D01*
X104642380Y-90934342D02*
X104594761Y-91029580D01*
X104594761Y-91029580D02*
X104547142Y-91077200D01*
X104547142Y-91077200D02*
X104451904Y-91124819D01*
X104451904Y-91124819D02*
X104213809Y-91124819D01*
X104213809Y-91124819D02*
X104118571Y-91077200D01*
X104118571Y-91077200D02*
X104070952Y-91029580D01*
X105547142Y-90124819D02*
X105070952Y-90124819D01*
X105070952Y-90124819D02*
X105023333Y-90601009D01*
X105023333Y-90601009D02*
X105070952Y-90553390D01*
X105070952Y-90553390D02*
X105166190Y-90505771D01*
X105166190Y-90505771D02*
X105404285Y-90505771D01*
X105404285Y-90505771D02*
X105499523Y-90553390D01*
X105499523Y-90553390D02*
X105547142Y-90601009D01*
X105547142Y-90601009D02*
X105594761Y-90696247D01*
X105594761Y-90696247D02*
X105594761Y-90934342D01*
X105594761Y-90934342D02*
X105547142Y-91029580D01*
X105547142Y-91029580D02*
X105499523Y-91077200D01*
X105499523Y-91077200D02*
X105404285Y-91124819D01*
X105404285Y-91124819D02*
X105166190Y-91124819D01*
X105166190Y-91124819D02*
X105070952Y-91077200D01*
X105070952Y-91077200D02*
X105023333Y-91029580D01*
X106499523Y-90124819D02*
X106023333Y-90124819D01*
X106023333Y-90124819D02*
X105975714Y-90601009D01*
X105975714Y-90601009D02*
X106023333Y-90553390D01*
X106023333Y-90553390D02*
X106118571Y-90505771D01*
X106118571Y-90505771D02*
X106356666Y-90505771D01*
X106356666Y-90505771D02*
X106451904Y-90553390D01*
X106451904Y-90553390D02*
X106499523Y-90601009D01*
X106499523Y-90601009D02*
X106547142Y-90696247D01*
X106547142Y-90696247D02*
X106547142Y-90934342D01*
X106547142Y-90934342D02*
X106499523Y-91029580D01*
X106499523Y-91029580D02*
X106451904Y-91077200D01*
X106451904Y-91077200D02*
X106356666Y-91124819D01*
X106356666Y-91124819D02*
X106118571Y-91124819D01*
X106118571Y-91124819D02*
X106023333Y-91077200D01*
X106023333Y-91077200D02*
X105975714Y-91029580D01*
X92204819Y-97595238D02*
X92204819Y-98166666D01*
X92204819Y-97880952D02*
X91204819Y-97880952D01*
X91204819Y-97880952D02*
X91347676Y-97976190D01*
X91347676Y-97976190D02*
X91442914Y-98071428D01*
X91442914Y-98071428D02*
X91490533Y-98166666D01*
X91538152Y-97166666D02*
X92204819Y-97166666D01*
X91633390Y-97166666D02*
X91585771Y-97119047D01*
X91585771Y-97119047D02*
X91538152Y-97023809D01*
X91538152Y-97023809D02*
X91538152Y-96880952D01*
X91538152Y-96880952D02*
X91585771Y-96785714D01*
X91585771Y-96785714D02*
X91681009Y-96738095D01*
X91681009Y-96738095D02*
X92204819Y-96738095D01*
X91681009Y-95928571D02*
X91681009Y-96261904D01*
X92204819Y-96261904D02*
X91204819Y-96261904D01*
X91204819Y-96261904D02*
X91204819Y-95785714D01*
X110084819Y-97070476D02*
X110084819Y-97641904D01*
X110084819Y-97356190D02*
X109084819Y-97356190D01*
X109084819Y-97356190D02*
X109227676Y-97451428D01*
X109227676Y-97451428D02*
X109322914Y-97546666D01*
X109322914Y-97546666D02*
X109370533Y-97641904D01*
X109084819Y-96451428D02*
X109084819Y-96356190D01*
X109084819Y-96356190D02*
X109132438Y-96260952D01*
X109132438Y-96260952D02*
X109180057Y-96213333D01*
X109180057Y-96213333D02*
X109275295Y-96165714D01*
X109275295Y-96165714D02*
X109465771Y-96118095D01*
X109465771Y-96118095D02*
X109703866Y-96118095D01*
X109703866Y-96118095D02*
X109894342Y-96165714D01*
X109894342Y-96165714D02*
X109989580Y-96213333D01*
X109989580Y-96213333D02*
X110037200Y-96260952D01*
X110037200Y-96260952D02*
X110084819Y-96356190D01*
X110084819Y-96356190D02*
X110084819Y-96451428D01*
X110084819Y-96451428D02*
X110037200Y-96546666D01*
X110037200Y-96546666D02*
X109989580Y-96594285D01*
X109989580Y-96594285D02*
X109894342Y-96641904D01*
X109894342Y-96641904D02*
X109703866Y-96689523D01*
X109703866Y-96689523D02*
X109465771Y-96689523D01*
X109465771Y-96689523D02*
X109275295Y-96641904D01*
X109275295Y-96641904D02*
X109180057Y-96594285D01*
X109180057Y-96594285D02*
X109132438Y-96546666D01*
X109132438Y-96546666D02*
X109084819Y-96451428D01*
X110084819Y-95689523D02*
X109084819Y-95689523D01*
X110084819Y-95118095D02*
X109513390Y-95546666D01*
X109084819Y-95118095D02*
X109656247Y-95689523D01*
X92202380Y-103704819D02*
X91630952Y-103704819D01*
X91916666Y-103704819D02*
X91916666Y-102704819D01*
X91916666Y-102704819D02*
X91821428Y-102847676D01*
X91821428Y-102847676D02*
X91726190Y-102942914D01*
X91726190Y-102942914D02*
X91630952Y-102990533D01*
X92821428Y-102704819D02*
X92916666Y-102704819D01*
X92916666Y-102704819D02*
X93011904Y-102752438D01*
X93011904Y-102752438D02*
X93059523Y-102800057D01*
X93059523Y-102800057D02*
X93107142Y-102895295D01*
X93107142Y-102895295D02*
X93154761Y-103085771D01*
X93154761Y-103085771D02*
X93154761Y-103323866D01*
X93154761Y-103323866D02*
X93107142Y-103514342D01*
X93107142Y-103514342D02*
X93059523Y-103609580D01*
X93059523Y-103609580D02*
X93011904Y-103657200D01*
X93011904Y-103657200D02*
X92916666Y-103704819D01*
X92916666Y-103704819D02*
X92821428Y-103704819D01*
X92821428Y-103704819D02*
X92726190Y-103657200D01*
X92726190Y-103657200D02*
X92678571Y-103609580D01*
X92678571Y-103609580D02*
X92630952Y-103514342D01*
X92630952Y-103514342D02*
X92583333Y-103323866D01*
X92583333Y-103323866D02*
X92583333Y-103085771D01*
X92583333Y-103085771D02*
X92630952Y-102895295D01*
X92630952Y-102895295D02*
X92678571Y-102800057D01*
X92678571Y-102800057D02*
X92726190Y-102752438D01*
X92726190Y-102752438D02*
X92821428Y-102704819D01*
X93773809Y-102704819D02*
X93869047Y-102704819D01*
X93869047Y-102704819D02*
X93964285Y-102752438D01*
X93964285Y-102752438D02*
X94011904Y-102800057D01*
X94011904Y-102800057D02*
X94059523Y-102895295D01*
X94059523Y-102895295D02*
X94107142Y-103085771D01*
X94107142Y-103085771D02*
X94107142Y-103323866D01*
X94107142Y-103323866D02*
X94059523Y-103514342D01*
X94059523Y-103514342D02*
X94011904Y-103609580D01*
X94011904Y-103609580D02*
X93964285Y-103657200D01*
X93964285Y-103657200D02*
X93869047Y-103704819D01*
X93869047Y-103704819D02*
X93773809Y-103704819D01*
X93773809Y-103704819D02*
X93678571Y-103657200D01*
X93678571Y-103657200D02*
X93630952Y-103609580D01*
X93630952Y-103609580D02*
X93583333Y-103514342D01*
X93583333Y-103514342D02*
X93535714Y-103323866D01*
X93535714Y-103323866D02*
X93535714Y-103085771D01*
X93535714Y-103085771D02*
X93583333Y-102895295D01*
X93583333Y-102895295D02*
X93630952Y-102800057D01*
X93630952Y-102800057D02*
X93678571Y-102752438D01*
X93678571Y-102752438D02*
X93773809Y-102704819D01*
X94964285Y-103038152D02*
X94964285Y-103704819D01*
X94535714Y-103038152D02*
X94535714Y-103561961D01*
X94535714Y-103561961D02*
X94583333Y-103657200D01*
X94583333Y-103657200D02*
X94678571Y-103704819D01*
X94678571Y-103704819D02*
X94821428Y-103704819D01*
X94821428Y-103704819D02*
X94916666Y-103657200D01*
X94916666Y-103657200D02*
X94964285Y-103609580D01*
X95773809Y-103181009D02*
X95440476Y-103181009D01*
X95440476Y-103704819D02*
X95440476Y-102704819D01*
X95440476Y-102704819D02*
X95916666Y-102704819D01*
X101165714Y-91824819D02*
X100594286Y-91824819D01*
X100880000Y-91824819D02*
X100880000Y-90824819D01*
X100880000Y-90824819D02*
X100784762Y-90967676D01*
X100784762Y-90967676D02*
X100689524Y-91062914D01*
X100689524Y-91062914D02*
X100594286Y-91110533D01*
X101594286Y-91824819D02*
X101594286Y-90824819D01*
X102165714Y-91824819D02*
X101737143Y-91253390D01*
X102165714Y-90824819D02*
X101594286Y-91396247D01*
D11*
%TO.C,TP3*%
X111020000Y-106145000D02*
X113620000Y-106145000D01*
X108420000Y-106145000D02*
X109750000Y-106145000D01*
X108420000Y-107475000D02*
X108420000Y-106145000D01*
X113620000Y-108805000D02*
X113620000Y-106145000D01*
X111020000Y-108805000D02*
X111020000Y-106145000D01*
X111020000Y-108805000D02*
X113620000Y-108805000D01*
%TO.C,TP2*%
X102520000Y-106145000D02*
X105120000Y-106145000D01*
X99920000Y-106145000D02*
X101250000Y-106145000D01*
X99920000Y-107475000D02*
X99920000Y-106145000D01*
X105120000Y-108805000D02*
X105120000Y-106145000D01*
X102520000Y-108805000D02*
X102520000Y-106145000D01*
X102520000Y-108805000D02*
X105120000Y-108805000D01*
%TO.C,+BAT-*%
X88170000Y-96230000D02*
X88170000Y-98830000D01*
X88170000Y-96230000D02*
X90830000Y-96230000D01*
X88170000Y-98830000D02*
X90830000Y-98830000D01*
X89500000Y-93630000D02*
X90830000Y-93630000D01*
X90830000Y-93630000D02*
X90830000Y-94960000D01*
X90830000Y-96230000D02*
X90830000Y-98830000D01*
%TO.C,IC 555*%
X105190000Y-91670000D02*
G75*
G02*
X103190000Y-91670000I-1000000J0D01*
G01*
X106840000Y-101950000D02*
X106840000Y-91670000D01*
X106840000Y-91670000D02*
X105190000Y-91670000D01*
X103190000Y-91670000D02*
X101540000Y-91670000D01*
X101540000Y-101950000D02*
X106840000Y-101950000D01*
X101540000Y-91670000D02*
X101540000Y-101950000D01*
%TO.C,1nF*%
X98120000Y-92380000D02*
X98120000Y-101620000D01*
X96680000Y-92380000D02*
X98120000Y-92380000D01*
X92880000Y-92380000D02*
X94320000Y-92380000D01*
X98120000Y-101620000D02*
X96680000Y-101620000D01*
X94320000Y-101620000D02*
X92880000Y-101620000D01*
X92880000Y-101620000D02*
X92880000Y-92380000D01*
%TO.C,10K*%
X110630000Y-99650000D02*
X113370000Y-99650000D01*
X113370000Y-93110000D01*
X110630000Y-93110000D01*
X110630000Y-99650000D01*
X112000000Y-89800000D02*
X112000000Y-93110000D01*
X112000000Y-102960000D02*
X112000000Y-99650000D01*
%TO.C,100uF*%
X97870000Y-108500000D02*
G75*
G02*
X89630000Y-108500000I-4120000J0D01*
G01*
X89630000Y-108500000D02*
G75*
G02*
X97870000Y-108500000I4120000J0D01*
G01*
%TO.C,1K*%
X104650000Y-90370000D02*
X98110000Y-90370000D01*
X98110000Y-87630000D01*
X104650000Y-87630000D01*
X104650000Y-90370000D01*
X94800000Y-89000000D02*
X98110000Y-89000000D01*
X107960000Y-89000000D02*
X104650000Y-89000000D01*
%TD*%
M02*
