%TF.GenerationSoftware,KiCad,Pcbnew,9.0.6*%
%TF.CreationDate,2026-01-01T03:20:53+05:30*%
%TF.ProjectId,Stem_Toy,5374656d-5f54-46f7-992e-6b696361645f,rev?*%
%TF.SameCoordinates,Original*%
%TF.FileFunction,Copper,L2,Bot*%
%TF.FilePolarity,Positive*%
%FSLAX46Y46*%
G04 Gerber Fmt 4.6, Leading zero omitted, Abs format (unit mm)*
G04 Created by KiCad (PCBNEW 9.0.6) date 2026-01-01 03:20:53*
%MOMM*%
%LPD*%
G01*
G04 APERTURE LIST*
G04 Aperture macros list*
%AMRoundRect*
0 Rectangle with rounded corners*
0 $1 Rounding radius*
0 $2 $3 $4 $5 $6 $7 $8 $9 X,Y pos of 4 corners*
0 Add a 4 corners polygon primitive as box body*
4,1,4,$2,$3,$4,$5,$6,$7,$8,$9,$2,$3,0*
0 Add four circle primitives for the rounded corners*
1,1,$1+$1,$2,$3*
1,1,$1+$1,$4,$5*
1,1,$1+$1,$6,$7*
1,1,$1+$1,$8,$9*
0 Add four rect primitives between the rounded corners*
20,1,$1+$1,$2,$3,$4,$5,0*
20,1,$1+$1,$4,$5,$6,$7,0*
20,1,$1+$1,$6,$7,$8,$9,0*
20,1,$1+$1,$8,$9,$2,$3,0*%
G04 Aperture macros list end*
%TA.AperFunction,ComponentPad*%
%ADD10C,1.700000*%
%TD*%
%TA.AperFunction,ComponentPad*%
%ADD11R,1.700000X1.700000*%
%TD*%
%TA.AperFunction,ComponentPad*%
%ADD12C,1.600000*%
%TD*%
%TA.AperFunction,ComponentPad*%
%ADD13RoundRect,0.250000X-0.550000X-0.550000X0.550000X-0.550000X0.550000X0.550000X-0.550000X0.550000X0*%
%TD*%
%TA.AperFunction,ComponentPad*%
%ADD14C,2.000000*%
%TD*%
%TA.AperFunction,Conductor*%
%ADD15C,0.500000*%
%TD*%
%TA.AperFunction,Conductor*%
%ADD16C,0.300000*%
%TD*%
G04 APERTURE END LIST*
D10*
%TO.P,TP3,2,2*%
%TO.N,Net-(C1-Pad1)*%
X112290000Y-107475000D03*
D11*
%TO.P,TP3,1,1*%
%TO.N,/TR*%
X109750000Y-107475000D03*
%TD*%
D10*
%TO.P,TP2,2,2*%
%TO.N,GND*%
X103790000Y-107475000D03*
D11*
%TO.P,TP2,1,1*%
%TO.N,Net-(C2-Pad2)*%
X101250000Y-107475000D03*
%TD*%
%TO.P,+BAT-,1,1*%
%TO.N,GND*%
X89500000Y-94960000D03*
D10*
%TO.P,+BAT-,2,2*%
%TO.N,VCC*%
X89500000Y-97500000D03*
%TD*%
D12*
%TO.P,IC 555,8,VCC*%
%TO.N,VCC*%
X108000000Y-93000000D03*
%TO.P,IC 555,7,DIS*%
%TO.N,/DIS*%
X108000000Y-95540000D03*
%TO.P,IC 555,6,THR*%
%TO.N,/TR*%
X108000000Y-98080000D03*
%TO.P,IC 555,5,CV*%
%TO.N,unconnected-(U1-CV-Pad5)*%
X108000000Y-100620000D03*
%TO.P,IC 555,4,R*%
%TO.N,VCC*%
X100380000Y-100620000D03*
%TO.P,IC 555,3,Q*%
%TO.N,/OUt*%
X100380000Y-98080000D03*
%TO.P,IC 555,2,TR*%
%TO.N,/TR*%
X100380000Y-95540000D03*
D13*
%TO.P,IC 555,1,GND*%
%TO.N,GND*%
X100380000Y-93000000D03*
%TD*%
D14*
%TO.P,1nF,2*%
%TO.N,GND*%
X95500000Y-92000000D03*
%TO.P,1nF,1*%
%TO.N,Net-(C1-Pad1)*%
X95500000Y-102000000D03*
%TD*%
D12*
%TO.P,10K,2*%
%TO.N,/DIS*%
X112000000Y-88760000D03*
%TO.P,10K,1*%
%TO.N,VCC*%
X112000000Y-104000000D03*
%TD*%
%TO.P,100uF,2*%
%TO.N,Net-(C2-Pad2)*%
X95500000Y-108500000D03*
%TO.P,100uF,1*%
%TO.N,/OUt*%
X92000000Y-108500000D03*
%TD*%
%TO.P,1K,2*%
%TO.N,/TR*%
X93760000Y-89000000D03*
%TO.P,1K,1*%
%TO.N,/DIS*%
X109000000Y-89000000D03*
%TD*%
D15*
%TO.N,Net-(C2-Pad2)*%
X100225000Y-108500000D02*
X101250000Y-107475000D01*
X95500000Y-108500000D02*
X100225000Y-108500000D01*
%TO.N,/OUt*%
X99129000Y-99331000D02*
X100380000Y-98080000D01*
X99129000Y-101371000D02*
X99129000Y-99331000D01*
X92000000Y-108500000D02*
X99129000Y-101371000D01*
D16*
%TO.N,/DIS*%
X111760000Y-89000000D02*
X112000000Y-88760000D01*
X109000000Y-89000000D02*
X111760000Y-89000000D01*
X109799999Y-93740001D02*
X108000000Y-95540000D01*
X109799999Y-89799999D02*
X109799999Y-93740001D01*
X109000000Y-89000000D02*
X109799999Y-89799999D01*
D15*
%TO.N,/TR*%
X109750000Y-99830000D02*
X109750000Y-107475000D01*
X108000000Y-98080000D02*
X109750000Y-99830000D01*
X104080000Y-98080000D02*
X108000000Y-98080000D01*
X101540000Y-95540000D02*
X104080000Y-98080000D01*
X100380000Y-95540000D02*
X101540000Y-95540000D01*
X99129000Y-94289000D02*
X100380000Y-95540000D01*
X94552024Y-89000000D02*
X99129000Y-93576976D01*
X99129000Y-93576976D02*
X99129000Y-94289000D01*
X93760000Y-89000000D02*
X94552024Y-89000000D01*
%TD*%
%TA.AperFunction,Conductor*%
%TO.N,GND*%
G36*
X114442539Y-86020185D02*
G01*
X114488294Y-86072989D01*
X114499500Y-86124500D01*
X114499500Y-112375500D01*
X114479815Y-112442539D01*
X114427011Y-112488294D01*
X114375500Y-112499500D01*
X87124500Y-112499500D01*
X87057461Y-112479815D01*
X87011706Y-112427011D01*
X87000500Y-112375500D01*
X87000500Y-108397648D01*
X90699500Y-108397648D01*
X90699500Y-108602351D01*
X90731522Y-108804534D01*
X90794781Y-108999223D01*
X90887715Y-109181613D01*
X91008028Y-109347213D01*
X91152786Y-109491971D01*
X91307749Y-109604556D01*
X91318390Y-109612287D01*
X91434607Y-109671503D01*
X91500776Y-109705218D01*
X91500778Y-109705218D01*
X91500781Y-109705220D01*
X91605137Y-109739127D01*
X91695465Y-109768477D01*
X91796557Y-109784488D01*
X91897648Y-109800500D01*
X91897649Y-109800500D01*
X92102351Y-109800500D01*
X92102352Y-109800500D01*
X92304534Y-109768477D01*
X92499219Y-109705220D01*
X92681610Y-109612287D01*
X92774590Y-109544732D01*
X92847213Y-109491971D01*
X92847215Y-109491968D01*
X92847219Y-109491966D01*
X92991966Y-109347219D01*
X92991968Y-109347215D01*
X92991971Y-109347213D01*
X93062236Y-109250500D01*
X93112287Y-109181610D01*
X93205220Y-108999219D01*
X93268477Y-108804534D01*
X93300500Y-108602352D01*
X93300500Y-108397648D01*
X94199500Y-108397648D01*
X94199500Y-108602351D01*
X94231522Y-108804534D01*
X94294781Y-108999223D01*
X94387715Y-109181613D01*
X94508028Y-109347213D01*
X94652786Y-109491971D01*
X94807749Y-109604556D01*
X94818390Y-109612287D01*
X94934607Y-109671503D01*
X95000776Y-109705218D01*
X95000778Y-109705218D01*
X95000781Y-109705220D01*
X95105137Y-109739127D01*
X95195465Y-109768477D01*
X95296557Y-109784488D01*
X95397648Y-109800500D01*
X95397649Y-109800500D01*
X95602351Y-109800500D01*
X95602352Y-109800500D01*
X95804534Y-109768477D01*
X95999219Y-109705220D01*
X96181610Y-109612287D01*
X96274590Y-109544732D01*
X96347213Y-109491971D01*
X96347215Y-109491968D01*
X96347219Y-109491966D01*
X96491966Y-109347219D01*
X96494650Y-109343524D01*
X96525100Y-109301615D01*
X96580429Y-109258949D01*
X96625418Y-109250500D01*
X100298920Y-109250500D01*
X100396462Y-109231096D01*
X100443913Y-109221658D01*
X100580495Y-109165084D01*
X100629729Y-109132186D01*
X100703416Y-109082952D01*
X100924549Y-108861817D01*
X100985872Y-108828333D01*
X101012230Y-108825499D01*
X102147871Y-108825499D01*
X102147872Y-108825499D01*
X102207483Y-108819091D01*
X102342331Y-108768796D01*
X102457546Y-108682546D01*
X102543796Y-108567331D01*
X102594091Y-108432483D01*
X102600500Y-108372873D01*
X102600499Y-108348979D01*
X102603330Y-108335963D01*
X102613940Y-108316525D01*
X102620179Y-108295275D01*
X102636803Y-108274643D01*
X102636808Y-108274636D01*
X102636811Y-108274634D01*
X102636818Y-108274626D01*
X103307037Y-107604408D01*
X103324075Y-107667993D01*
X103389901Y-107782007D01*
X103482993Y-107875099D01*
X103597007Y-107940925D01*
X103660590Y-107957962D01*
X103028282Y-108590269D01*
X103028282Y-108590270D01*
X103082449Y-108629624D01*
X103271782Y-108726095D01*
X103473870Y-108791757D01*
X103683754Y-108825000D01*
X103896246Y-108825000D01*
X104106127Y-108791757D01*
X104106130Y-108791757D01*
X104308217Y-108726095D01*
X104497554Y-108629622D01*
X104551716Y-108590270D01*
X104551717Y-108590270D01*
X103919408Y-107957962D01*
X103982993Y-107940925D01*
X104097007Y-107875099D01*
X104190099Y-107782007D01*
X104255925Y-107667993D01*
X104272962Y-107604408D01*
X104905270Y-108236717D01*
X104905270Y-108236716D01*
X104944622Y-108182554D01*
X105041095Y-107993217D01*
X105106757Y-107791130D01*
X105106757Y-107791127D01*
X105140000Y-107581246D01*
X105140000Y-107368753D01*
X105106757Y-107158872D01*
X105106757Y-107158869D01*
X105041095Y-106956782D01*
X104944624Y-106767449D01*
X104905270Y-106713282D01*
X104905269Y-106713282D01*
X104272962Y-107345590D01*
X104255925Y-107282007D01*
X104190099Y-107167993D01*
X104097007Y-107074901D01*
X103982993Y-107009075D01*
X103919409Y-106992037D01*
X104551716Y-106359728D01*
X104497550Y-106320375D01*
X104308217Y-106223904D01*
X104106129Y-106158242D01*
X103896246Y-106125000D01*
X103683754Y-106125000D01*
X103473872Y-106158242D01*
X103473869Y-106158242D01*
X103271782Y-106223904D01*
X103082439Y-106320380D01*
X103028282Y-106359727D01*
X103028282Y-106359728D01*
X103660591Y-106992037D01*
X103597007Y-107009075D01*
X103482993Y-107074901D01*
X103389901Y-107167993D01*
X103324075Y-107282007D01*
X103307037Y-107345591D01*
X102636818Y-106675372D01*
X102603333Y-106614049D01*
X102603330Y-106614036D01*
X102600499Y-106601015D01*
X102600499Y-106577128D01*
X102594091Y-106517517D01*
X102565926Y-106442002D01*
X102543798Y-106382673D01*
X102543793Y-106382664D01*
X102457547Y-106267455D01*
X102457544Y-106267452D01*
X102342335Y-106181206D01*
X102342328Y-106181202D01*
X102207482Y-106130908D01*
X102207483Y-106130908D01*
X102147883Y-106124501D01*
X102147881Y-106124500D01*
X102147873Y-106124500D01*
X102147864Y-106124500D01*
X100352129Y-106124500D01*
X100352123Y-106124501D01*
X100292516Y-106130908D01*
X100157671Y-106181202D01*
X100157664Y-106181206D01*
X100042455Y-106267452D01*
X100042452Y-106267455D01*
X99956206Y-106382664D01*
X99956202Y-106382671D01*
X99905908Y-106517517D01*
X99901510Y-106558431D01*
X99899500Y-106577127D01*
X99899500Y-107158872D01*
X99899501Y-107625500D01*
X99879817Y-107692539D01*
X99827013Y-107738294D01*
X99775501Y-107749500D01*
X96625418Y-107749500D01*
X96558379Y-107729815D01*
X96525100Y-107698385D01*
X96491971Y-107652787D01*
X96491967Y-107652782D01*
X96347213Y-107508028D01*
X96181613Y-107387715D01*
X96181612Y-107387714D01*
X96181610Y-107387713D01*
X96124653Y-107358691D01*
X95999223Y-107294781D01*
X95804534Y-107231522D01*
X95629995Y-107203878D01*
X95602352Y-107199500D01*
X95397648Y-107199500D01*
X95373329Y-107203351D01*
X95195465Y-107231522D01*
X95000776Y-107294781D01*
X94818386Y-107387715D01*
X94652786Y-107508028D01*
X94508028Y-107652786D01*
X94387715Y-107818386D01*
X94294781Y-108000776D01*
X94231522Y-108195465D01*
X94199500Y-108397648D01*
X93300500Y-108397648D01*
X93291570Y-108341271D01*
X93291479Y-108340652D01*
X93296240Y-108306683D01*
X93300635Y-108272679D01*
X93301104Y-108271992D01*
X93301179Y-108271459D01*
X93302593Y-108269815D01*
X93326470Y-108234895D01*
X99711951Y-101849416D01*
X99711958Y-101849404D01*
X99712444Y-101848814D01*
X99712789Y-101848578D01*
X99716259Y-101845109D01*
X99716916Y-101845766D01*
X99770183Y-101809470D01*
X99840027Y-101807587D01*
X99864597Y-101816973D01*
X99880781Y-101825220D01*
X99978123Y-101856848D01*
X100075465Y-101888477D01*
X100176557Y-101904488D01*
X100277648Y-101920500D01*
X100277649Y-101920500D01*
X100482351Y-101920500D01*
X100482352Y-101920500D01*
X100684534Y-101888477D01*
X100879219Y-101825220D01*
X101061610Y-101732287D01*
X101176754Y-101648631D01*
X101227213Y-101611971D01*
X101227215Y-101611968D01*
X101227219Y-101611966D01*
X101371966Y-101467219D01*
X101371968Y-101467215D01*
X101371971Y-101467213D01*
X101424732Y-101394590D01*
X101492287Y-101301610D01*
X101585220Y-101119219D01*
X101648477Y-100924534D01*
X101680500Y-100722352D01*
X101680500Y-100517648D01*
X101648477Y-100315466D01*
X101585220Y-100120781D01*
X101585218Y-100120778D01*
X101585218Y-100120776D01*
X101551503Y-100054607D01*
X101492287Y-99938390D01*
X101484556Y-99927749D01*
X101371971Y-99772786D01*
X101227213Y-99628028D01*
X101061614Y-99507715D01*
X101055006Y-99504348D01*
X100968917Y-99460483D01*
X100918123Y-99412511D01*
X100901328Y-99344690D01*
X100923865Y-99278555D01*
X100968917Y-99239516D01*
X101061610Y-99192287D01*
X101171997Y-99112087D01*
X101227213Y-99071971D01*
X101227215Y-99071968D01*
X101227219Y-99071966D01*
X101371966Y-98927219D01*
X101371968Y-98927215D01*
X101371971Y-98927213D01*
X101451865Y-98817246D01*
X101492287Y-98761610D01*
X101585220Y-98579219D01*
X101648477Y-98384534D01*
X101680500Y-98182352D01*
X101680500Y-97977648D01*
X101648477Y-97775466D01*
X101585220Y-97580781D01*
X101585218Y-97580778D01*
X101585218Y-97580776D01*
X101551503Y-97514607D01*
X101492287Y-97398390D01*
X101442236Y-97329500D01*
X101371971Y-97232786D01*
X101227213Y-97088028D01*
X101061614Y-96967715D01*
X101055006Y-96964348D01*
X100968917Y-96920483D01*
X100918123Y-96872511D01*
X100901328Y-96804690D01*
X100923865Y-96738555D01*
X100968917Y-96699516D01*
X101061610Y-96652287D01*
X101105754Y-96620215D01*
X101227213Y-96531971D01*
X101227215Y-96531968D01*
X101227219Y-96531966D01*
X101261227Y-96497957D01*
X101322548Y-96464472D01*
X101392240Y-96469456D01*
X101436589Y-96497957D01*
X103497048Y-98558415D01*
X103497049Y-98558416D01*
X103593681Y-98655048D01*
X103601585Y-98662952D01*
X103724498Y-98745080D01*
X103724511Y-98745087D01*
X103861082Y-98801656D01*
X103861087Y-98801658D01*
X103861091Y-98801658D01*
X103861092Y-98801659D01*
X104006079Y-98830500D01*
X104006082Y-98830500D01*
X106874582Y-98830500D01*
X106941621Y-98850185D01*
X106974900Y-98881615D01*
X107008028Y-98927212D01*
X107008032Y-98927217D01*
X107152786Y-99071971D01*
X107307749Y-99184556D01*
X107318390Y-99192287D01*
X107409840Y-99238883D01*
X107411080Y-99239515D01*
X107461876Y-99287490D01*
X107478671Y-99355311D01*
X107456134Y-99421446D01*
X107411080Y-99460485D01*
X107318386Y-99507715D01*
X107152786Y-99628028D01*
X107008028Y-99772786D01*
X106887715Y-99938386D01*
X106794781Y-100120776D01*
X106731522Y-100315465D01*
X106699500Y-100517648D01*
X106699500Y-100722351D01*
X106731522Y-100924534D01*
X106794781Y-101119223D01*
X106887715Y-101301613D01*
X107008028Y-101467213D01*
X107152786Y-101611971D01*
X107255816Y-101686825D01*
X107318390Y-101732287D01*
X107434607Y-101791503D01*
X107500776Y-101825218D01*
X107500778Y-101825218D01*
X107500781Y-101825220D01*
X107605137Y-101859127D01*
X107695465Y-101888477D01*
X107796557Y-101904488D01*
X107897648Y-101920500D01*
X107897649Y-101920500D01*
X108102351Y-101920500D01*
X108102352Y-101920500D01*
X108304534Y-101888477D01*
X108499219Y-101825220D01*
X108681610Y-101732287D01*
X108753451Y-101680091D01*
X108802615Y-101644373D01*
X108868421Y-101620893D01*
X108936475Y-101636719D01*
X108985170Y-101686825D01*
X108999500Y-101744691D01*
X108999500Y-106000500D01*
X108979815Y-106067539D01*
X108927011Y-106113294D01*
X108875505Y-106124500D01*
X108852132Y-106124500D01*
X108852123Y-106124501D01*
X108792516Y-106130908D01*
X108657671Y-106181202D01*
X108657664Y-106181206D01*
X108542455Y-106267452D01*
X108542452Y-106267455D01*
X108456206Y-106382664D01*
X108456202Y-106382671D01*
X108405908Y-106517517D01*
X108399501Y-106577116D01*
X108399500Y-106577135D01*
X108399500Y-108372870D01*
X108399501Y-108372876D01*
X108405908Y-108432483D01*
X108456202Y-108567328D01*
X108456206Y-108567335D01*
X108542452Y-108682544D01*
X108542455Y-108682547D01*
X108657664Y-108768793D01*
X108657671Y-108768797D01*
X108792517Y-108819091D01*
X108792516Y-108819091D01*
X108799444Y-108819835D01*
X108852127Y-108825500D01*
X110647872Y-108825499D01*
X110707483Y-108819091D01*
X110842331Y-108768796D01*
X110957546Y-108682546D01*
X111043796Y-108567331D01*
X111092810Y-108435916D01*
X111134681Y-108379984D01*
X111200145Y-108355566D01*
X111268418Y-108370417D01*
X111296673Y-108391569D01*
X111410213Y-108505109D01*
X111582179Y-108630048D01*
X111582181Y-108630049D01*
X111582184Y-108630051D01*
X111771588Y-108726557D01*
X111973757Y-108792246D01*
X112183713Y-108825500D01*
X112183714Y-108825500D01*
X112396286Y-108825500D01*
X112396287Y-108825500D01*
X112606243Y-108792246D01*
X112808412Y-108726557D01*
X112997816Y-108630051D01*
X113084138Y-108567335D01*
X113169786Y-108505109D01*
X113169788Y-108505106D01*
X113169792Y-108505104D01*
X113320104Y-108354792D01*
X113320106Y-108354788D01*
X113320109Y-108354786D01*
X113445048Y-108182820D01*
X113445047Y-108182820D01*
X113445051Y-108182816D01*
X113541557Y-107993412D01*
X113607246Y-107791243D01*
X113640500Y-107581287D01*
X113640500Y-107368713D01*
X113607246Y-107158757D01*
X113541557Y-106956588D01*
X113445051Y-106767184D01*
X113445049Y-106767181D01*
X113445048Y-106767179D01*
X113320109Y-106595213D01*
X113169786Y-106444890D01*
X112997820Y-106319951D01*
X112808414Y-106223444D01*
X112808413Y-106223443D01*
X112808412Y-106223443D01*
X112606243Y-106157754D01*
X112606241Y-106157753D01*
X112606240Y-106157753D01*
X112444957Y-106132208D01*
X112396287Y-106124500D01*
X112183713Y-106124500D01*
X112135042Y-106132208D01*
X111973760Y-106157753D01*
X111771585Y-106223444D01*
X111582179Y-106319951D01*
X111410215Y-106444889D01*
X111296673Y-106558431D01*
X111235350Y-106591915D01*
X111165658Y-106586931D01*
X111109725Y-106545059D01*
X111092810Y-106514082D01*
X111043797Y-106382671D01*
X111043793Y-106382664D01*
X110957547Y-106267455D01*
X110957544Y-106267452D01*
X110842335Y-106181206D01*
X110842328Y-106181202D01*
X110707482Y-106130908D01*
X110707483Y-106130908D01*
X110647883Y-106124501D01*
X110647881Y-106124500D01*
X110647873Y-106124500D01*
X110647865Y-106124500D01*
X110624500Y-106124500D01*
X110557461Y-106104815D01*
X110511706Y-106052011D01*
X110500500Y-106000500D01*
X110500500Y-104376424D01*
X110520185Y-104309385D01*
X110572989Y-104263630D01*
X110642147Y-104253686D01*
X110705703Y-104282711D01*
X110742431Y-104338106D01*
X110794781Y-104499221D01*
X110887715Y-104681613D01*
X111008028Y-104847213D01*
X111152786Y-104991971D01*
X111307749Y-105104556D01*
X111318390Y-105112287D01*
X111434607Y-105171503D01*
X111500776Y-105205218D01*
X111500778Y-105205218D01*
X111500781Y-105205220D01*
X111605137Y-105239127D01*
X111695465Y-105268477D01*
X111796557Y-105284488D01*
X111897648Y-105300500D01*
X111897649Y-105300500D01*
X112102351Y-105300500D01*
X112102352Y-105300500D01*
X112304534Y-105268477D01*
X112499219Y-105205220D01*
X112681610Y-105112287D01*
X112774590Y-105044732D01*
X112847213Y-104991971D01*
X112847215Y-104991968D01*
X112847219Y-104991966D01*
X112991966Y-104847219D01*
X112991968Y-104847215D01*
X112991971Y-104847213D01*
X113044732Y-104774590D01*
X113112287Y-104681610D01*
X113205220Y-104499219D01*
X113268477Y-104304534D01*
X113300500Y-104102352D01*
X113300500Y-103897648D01*
X113268477Y-103695465D01*
X113205218Y-103500776D01*
X113155912Y-103404009D01*
X113112287Y-103318390D01*
X113086824Y-103283343D01*
X112991971Y-103152786D01*
X112847213Y-103008028D01*
X112681613Y-102887715D01*
X112681612Y-102887714D01*
X112681610Y-102887713D01*
X112624653Y-102858691D01*
X112499223Y-102794781D01*
X112304534Y-102731522D01*
X112129995Y-102703878D01*
X112102352Y-102699500D01*
X111897648Y-102699500D01*
X111873329Y-102703351D01*
X111695465Y-102731522D01*
X111500776Y-102794781D01*
X111318386Y-102887715D01*
X111152786Y-103008028D01*
X111008028Y-103152786D01*
X110887715Y-103318386D01*
X110794781Y-103500776D01*
X110742431Y-103661894D01*
X110702993Y-103719569D01*
X110638634Y-103746767D01*
X110569788Y-103734852D01*
X110518312Y-103687608D01*
X110500500Y-103623575D01*
X110500500Y-99756079D01*
X110488166Y-99694075D01*
X110488165Y-99694074D01*
X110486658Y-99686494D01*
X110471659Y-99611088D01*
X110415701Y-99475995D01*
X110415327Y-99474870D01*
X110415084Y-99474506D01*
X110415084Y-99474505D01*
X110368587Y-99404917D01*
X110350769Y-99378250D01*
X110332954Y-99351586D01*
X109326473Y-98345105D01*
X109292988Y-98283782D01*
X109291681Y-98238026D01*
X109300500Y-98182352D01*
X109300500Y-97977648D01*
X109268477Y-97775466D01*
X109205220Y-97580781D01*
X109205218Y-97580778D01*
X109205218Y-97580776D01*
X109171503Y-97514607D01*
X109112287Y-97398390D01*
X109062236Y-97329500D01*
X108991971Y-97232786D01*
X108847213Y-97088028D01*
X108681614Y-96967715D01*
X108675006Y-96964348D01*
X108588917Y-96920483D01*
X108538123Y-96872511D01*
X108521328Y-96804690D01*
X108543865Y-96738555D01*
X108588917Y-96699516D01*
X108681610Y-96652287D01*
X108725754Y-96620215D01*
X108847213Y-96531971D01*
X108847215Y-96531968D01*
X108847219Y-96531966D01*
X108991966Y-96387219D01*
X108991968Y-96387215D01*
X108991971Y-96387213D01*
X109053574Y-96302422D01*
X109112287Y-96221610D01*
X109205220Y-96039219D01*
X109268477Y-95844534D01*
X109300500Y-95642352D01*
X109300500Y-95437648D01*
X109288217Y-95360099D01*
X109272345Y-95259887D01*
X109281300Y-95190594D01*
X109307137Y-95152808D01*
X110305271Y-94154675D01*
X110305272Y-94154674D01*
X110305272Y-94154673D01*
X110305276Y-94154670D01*
X110376464Y-94048128D01*
X110425500Y-93929745D01*
X110437559Y-93869124D01*
X110438201Y-93865895D01*
X110438201Y-93865893D01*
X110450499Y-93804071D01*
X110450499Y-89774500D01*
X110470184Y-89707461D01*
X110522988Y-89661706D01*
X110574499Y-89650500D01*
X110999953Y-89650500D01*
X111066992Y-89670185D01*
X111087634Y-89686819D01*
X111152786Y-89751971D01*
X111307749Y-89864556D01*
X111318390Y-89872287D01*
X111434607Y-89931503D01*
X111500776Y-89965218D01*
X111500778Y-89965218D01*
X111500781Y-89965220D01*
X111583097Y-89991966D01*
X111695465Y-90028477D01*
X111795979Y-90044397D01*
X111897648Y-90060500D01*
X111897649Y-90060500D01*
X112102351Y-90060500D01*
X112102352Y-90060500D01*
X112304534Y-90028477D01*
X112499219Y-89965220D01*
X112681610Y-89872287D01*
X112774590Y-89804732D01*
X112847213Y-89751971D01*
X112847215Y-89751968D01*
X112847219Y-89751966D01*
X112991966Y-89607219D01*
X112991968Y-89607215D01*
X112991971Y-89607213D01*
X113070432Y-89499219D01*
X113112287Y-89441610D01*
X113205220Y-89259219D01*
X113268477Y-89064534D01*
X113300500Y-88862352D01*
X113300500Y-88657648D01*
X113268477Y-88455466D01*
X113205220Y-88260781D01*
X113205218Y-88260777D01*
X113205218Y-88260776D01*
X113171503Y-88194607D01*
X113112287Y-88078390D01*
X113061171Y-88008034D01*
X112991971Y-87912786D01*
X112847213Y-87768028D01*
X112681613Y-87647715D01*
X112681612Y-87647714D01*
X112681610Y-87647713D01*
X112624653Y-87618691D01*
X112499223Y-87554781D01*
X112304534Y-87491522D01*
X112129995Y-87463878D01*
X112102352Y-87459500D01*
X111897648Y-87459500D01*
X111873329Y-87463351D01*
X111695465Y-87491522D01*
X111500776Y-87554781D01*
X111318386Y-87647715D01*
X111152786Y-87768028D01*
X111008028Y-87912786D01*
X110887715Y-88078386D01*
X110794781Y-88260777D01*
X110793791Y-88263826D01*
X110793100Y-88264835D01*
X110792919Y-88265274D01*
X110792826Y-88265235D01*
X110754349Y-88321499D01*
X110689989Y-88348693D01*
X110675862Y-88349500D01*
X110198071Y-88349500D01*
X110131032Y-88329815D01*
X110097754Y-88298386D01*
X109991966Y-88152781D01*
X109847219Y-88008034D01*
X109847213Y-88008028D01*
X109681613Y-87887715D01*
X109681612Y-87887714D01*
X109681610Y-87887713D01*
X109624653Y-87858691D01*
X109499223Y-87794781D01*
X109304534Y-87731522D01*
X109129995Y-87703878D01*
X109102352Y-87699500D01*
X108897648Y-87699500D01*
X108873329Y-87703351D01*
X108695465Y-87731522D01*
X108500776Y-87794781D01*
X108318386Y-87887715D01*
X108152786Y-88008028D01*
X108008028Y-88152786D01*
X107887715Y-88318386D01*
X107794781Y-88500776D01*
X107731522Y-88695465D01*
X107699500Y-88897648D01*
X107699500Y-89102351D01*
X107731522Y-89304534D01*
X107794781Y-89499223D01*
X107849806Y-89607213D01*
X107877571Y-89661706D01*
X107887715Y-89681613D01*
X108008028Y-89847213D01*
X108152786Y-89991971D01*
X108278309Y-90083167D01*
X108318390Y-90112287D01*
X108434607Y-90171503D01*
X108500776Y-90205218D01*
X108500778Y-90205218D01*
X108500781Y-90205220D01*
X108605137Y-90239127D01*
X108695465Y-90268477D01*
X108796557Y-90284488D01*
X108897648Y-90300500D01*
X108897649Y-90300500D01*
X109025499Y-90300500D01*
X109092538Y-90320185D01*
X109138293Y-90372989D01*
X109149499Y-90424500D01*
X109149499Y-92010952D01*
X109129814Y-92077991D01*
X109077010Y-92123746D01*
X109007852Y-92133690D01*
X108944296Y-92104665D01*
X108937818Y-92098633D01*
X108847213Y-92008028D01*
X108681613Y-91887715D01*
X108681612Y-91887714D01*
X108681610Y-91887713D01*
X108622675Y-91857684D01*
X108499223Y-91794781D01*
X108304534Y-91731522D01*
X108129995Y-91703878D01*
X108102352Y-91699500D01*
X107897648Y-91699500D01*
X107873329Y-91703351D01*
X107695465Y-91731522D01*
X107500776Y-91794781D01*
X107318386Y-91887715D01*
X107152786Y-92008028D01*
X107008028Y-92152786D01*
X106887715Y-92318386D01*
X106794781Y-92500776D01*
X106731522Y-92695465D01*
X106699500Y-92897648D01*
X106699500Y-93102351D01*
X106731522Y-93304534D01*
X106794781Y-93499223D01*
X106887715Y-93681613D01*
X107008028Y-93847213D01*
X107152786Y-93991971D01*
X107307749Y-94104556D01*
X107318390Y-94112287D01*
X107401571Y-94154670D01*
X107411080Y-94159515D01*
X107461876Y-94207490D01*
X107478671Y-94275311D01*
X107456134Y-94341446D01*
X107411080Y-94380485D01*
X107318386Y-94427715D01*
X107152786Y-94548028D01*
X107152782Y-94548032D01*
X107008034Y-94692781D01*
X107008032Y-94692783D01*
X106887715Y-94858386D01*
X106794781Y-95040776D01*
X106731522Y-95235465D01*
X106699500Y-95437648D01*
X106699500Y-95642351D01*
X106731522Y-95844534D01*
X106794781Y-96039223D01*
X106887715Y-96221613D01*
X107008028Y-96387213D01*
X107152786Y-96531971D01*
X107274246Y-96620215D01*
X107318390Y-96652287D01*
X107409840Y-96698883D01*
X107411080Y-96699515D01*
X107461876Y-96747490D01*
X107478671Y-96815311D01*
X107456134Y-96881446D01*
X107411080Y-96920485D01*
X107318386Y-96967715D01*
X107152786Y-97088028D01*
X107008032Y-97232782D01*
X107008028Y-97232787D01*
X106974900Y-97278385D01*
X106919571Y-97321051D01*
X106874582Y-97329500D01*
X104442229Y-97329500D01*
X104375190Y-97309815D01*
X104354548Y-97293181D01*
X102018421Y-94957052D01*
X102018414Y-94957046D01*
X101944729Y-94907812D01*
X101944729Y-94907813D01*
X101895491Y-94874913D01*
X101758917Y-94818343D01*
X101758907Y-94818340D01*
X101613920Y-94789500D01*
X101613918Y-94789500D01*
X101505418Y-94789500D01*
X101438379Y-94769815D01*
X101405100Y-94738385D01*
X101371968Y-94692783D01*
X101227217Y-94548032D01*
X101227212Y-94548028D01*
X101133051Y-94479616D01*
X101090385Y-94424286D01*
X101084406Y-94354673D01*
X101117012Y-94292878D01*
X101166933Y-94261592D01*
X101249117Y-94234359D01*
X101249124Y-94234356D01*
X101398345Y-94142315D01*
X101522315Y-94018345D01*
X101614356Y-93869124D01*
X101614358Y-93869119D01*
X101669505Y-93702697D01*
X101669506Y-93702690D01*
X101679999Y-93599986D01*
X101680000Y-93599973D01*
X101680000Y-93250000D01*
X100695686Y-93250000D01*
X100700080Y-93245606D01*
X100752741Y-93154394D01*
X100780000Y-93052661D01*
X100780000Y-92947339D01*
X100752741Y-92845606D01*
X100700080Y-92754394D01*
X100695686Y-92750000D01*
X101679999Y-92750000D01*
X101679999Y-92400028D01*
X101679998Y-92400013D01*
X101669505Y-92297302D01*
X101614358Y-92130880D01*
X101614356Y-92130875D01*
X101522315Y-91981654D01*
X101398345Y-91857684D01*
X101249124Y-91765643D01*
X101249119Y-91765641D01*
X101082697Y-91710494D01*
X101082690Y-91710493D01*
X100979986Y-91700000D01*
X100630000Y-91700000D01*
X100630000Y-92684314D01*
X100625606Y-92679920D01*
X100534394Y-92627259D01*
X100432661Y-92600000D01*
X100327339Y-92600000D01*
X100225606Y-92627259D01*
X100134394Y-92679920D01*
X100130000Y-92684314D01*
X100130000Y-91700000D01*
X99780028Y-91700000D01*
X99780012Y-91700001D01*
X99677302Y-91710494D01*
X99510880Y-91765641D01*
X99510875Y-91765643D01*
X99361654Y-91857684D01*
X99237684Y-91981654D01*
X99145643Y-92130875D01*
X99145642Y-92130878D01*
X99108978Y-92241523D01*
X99069205Y-92298967D01*
X99004689Y-92325790D01*
X98935913Y-92313475D01*
X98903591Y-92290199D01*
X95030445Y-88417052D01*
X95030438Y-88417046D01*
X94958349Y-88368878D01*
X94958316Y-88368857D01*
X94956753Y-88367813D01*
X94907519Y-88334916D01*
X94897080Y-88330592D01*
X94888346Y-88325134D01*
X94873522Y-88308458D01*
X94853741Y-88292863D01*
X94751966Y-88152781D01*
X94607219Y-88008034D01*
X94607213Y-88008028D01*
X94441613Y-87887715D01*
X94441612Y-87887714D01*
X94441610Y-87887713D01*
X94384653Y-87858691D01*
X94259223Y-87794781D01*
X94064534Y-87731522D01*
X93889995Y-87703878D01*
X93862352Y-87699500D01*
X93657648Y-87699500D01*
X93633329Y-87703351D01*
X93455465Y-87731522D01*
X93260776Y-87794781D01*
X93078386Y-87887715D01*
X92912786Y-88008028D01*
X92768028Y-88152786D01*
X92647715Y-88318386D01*
X92554781Y-88500776D01*
X92491522Y-88695465D01*
X92459500Y-88897648D01*
X92459500Y-89102351D01*
X92491522Y-89304534D01*
X92554781Y-89499223D01*
X92609806Y-89607213D01*
X92637571Y-89661706D01*
X92647715Y-89681613D01*
X92768028Y-89847213D01*
X92912786Y-89991971D01*
X93038309Y-90083167D01*
X93078390Y-90112287D01*
X93194607Y-90171503D01*
X93260776Y-90205218D01*
X93260778Y-90205218D01*
X93260781Y-90205220D01*
X93365137Y-90239127D01*
X93455465Y-90268477D01*
X93556557Y-90284488D01*
X93657648Y-90300500D01*
X93657649Y-90300500D01*
X93862351Y-90300500D01*
X93862352Y-90300500D01*
X94064534Y-90268477D01*
X94259219Y-90205220D01*
X94441610Y-90112287D01*
X94449367Y-90106650D01*
X94515168Y-90083167D01*
X94583224Y-90098986D01*
X94609939Y-90119283D01*
X94920343Y-90429687D01*
X94953828Y-90491010D01*
X94948844Y-90560702D01*
X94906972Y-90616635D01*
X94888957Y-90627853D01*
X94713830Y-90717084D01*
X94630894Y-90777340D01*
X95370591Y-91517037D01*
X95307007Y-91534075D01*
X95192993Y-91599901D01*
X95099901Y-91692993D01*
X95034075Y-91807007D01*
X95017037Y-91870591D01*
X94277340Y-91130894D01*
X94217084Y-91213830D01*
X94109897Y-91424197D01*
X94036934Y-91648752D01*
X94000000Y-91881947D01*
X94000000Y-92118052D01*
X94036934Y-92351247D01*
X94109897Y-92575802D01*
X94217087Y-92786174D01*
X94277338Y-92869104D01*
X94277340Y-92869105D01*
X95017037Y-92129408D01*
X95034075Y-92192993D01*
X95099901Y-92307007D01*
X95192993Y-92400099D01*
X95307007Y-92465925D01*
X95370590Y-92482962D01*
X94630893Y-93222658D01*
X94713828Y-93282914D01*
X94924197Y-93390102D01*
X95148752Y-93463065D01*
X95148751Y-93463065D01*
X95381948Y-93500000D01*
X95618052Y-93500000D01*
X95851247Y-93463065D01*
X96075802Y-93390102D01*
X96286163Y-93282918D01*
X96286169Y-93282914D01*
X96369104Y-93222658D01*
X96369105Y-93222658D01*
X95629408Y-92482962D01*
X95692993Y-92465925D01*
X95807007Y-92400099D01*
X95900099Y-92307007D01*
X95965925Y-92192993D01*
X95982962Y-92129408D01*
X96722658Y-92869105D01*
X96722658Y-92869104D01*
X96782914Y-92786169D01*
X96782918Y-92786163D01*
X96872147Y-92611042D01*
X96920121Y-92560246D01*
X96987942Y-92543451D01*
X97054077Y-92565988D01*
X97070313Y-92579656D01*
X98342181Y-93851524D01*
X98375666Y-93912847D01*
X98378500Y-93939205D01*
X98378500Y-94362918D01*
X98378500Y-94362920D01*
X98378499Y-94362920D01*
X98407340Y-94507907D01*
X98407343Y-94507917D01*
X98463913Y-94644490D01*
X98463914Y-94644492D01*
X98463915Y-94644494D01*
X98463916Y-94644495D01*
X98496180Y-94692781D01*
X98546048Y-94767416D01*
X98819413Y-95040781D01*
X99053526Y-95274893D01*
X99087011Y-95336216D01*
X99088318Y-95381971D01*
X99079500Y-95437647D01*
X99079500Y-95642351D01*
X99111522Y-95844534D01*
X99174781Y-96039223D01*
X99267715Y-96221613D01*
X99388028Y-96387213D01*
X99532786Y-96531971D01*
X99654246Y-96620215D01*
X99698390Y-96652287D01*
X99789840Y-96698883D01*
X99791080Y-96699515D01*
X99841876Y-96747490D01*
X99858671Y-96815311D01*
X99836134Y-96881446D01*
X99791080Y-96920485D01*
X99698386Y-96967715D01*
X99532786Y-97088028D01*
X99388028Y-97232786D01*
X99267715Y-97398386D01*
X99174781Y-97580776D01*
X99111522Y-97775465D01*
X99079500Y-97977648D01*
X99079500Y-98182351D01*
X99088318Y-98238026D01*
X99079363Y-98307320D01*
X99053526Y-98345105D01*
X98546050Y-98852580D01*
X98546044Y-98852588D01*
X98496812Y-98926268D01*
X98496813Y-98926269D01*
X98463921Y-98975496D01*
X98463914Y-98975508D01*
X98407342Y-99112086D01*
X98407340Y-99112092D01*
X98378500Y-99257079D01*
X98378500Y-101008770D01*
X98358815Y-101075809D01*
X98342181Y-101096451D01*
X97210126Y-102228505D01*
X97148803Y-102261990D01*
X97079111Y-102257006D01*
X97023178Y-102215134D01*
X96998761Y-102149670D01*
X96999974Y-102121414D01*
X97000500Y-102118095D01*
X97000500Y-101881902D01*
X96963553Y-101648631D01*
X96904606Y-101467213D01*
X96890568Y-101424008D01*
X96890566Y-101424005D01*
X96890566Y-101424003D01*
X96783342Y-101213566D01*
X96644517Y-101022490D01*
X96477510Y-100855483D01*
X96286433Y-100716657D01*
X96075996Y-100609433D01*
X95851368Y-100536446D01*
X95618097Y-100499500D01*
X95618092Y-100499500D01*
X95381908Y-100499500D01*
X95381903Y-100499500D01*
X95148631Y-100536446D01*
X94924003Y-100609433D01*
X94713566Y-100716657D01*
X94604550Y-100795862D01*
X94522490Y-100855483D01*
X94522488Y-100855485D01*
X94522487Y-100855485D01*
X94355485Y-101022487D01*
X94355485Y-101022488D01*
X94355483Y-101022490D01*
X94301747Y-101096451D01*
X94216657Y-101213566D01*
X94109433Y-101424003D01*
X94036446Y-101648631D01*
X93999500Y-101881902D01*
X93999500Y-102118097D01*
X94036446Y-102351368D01*
X94109433Y-102575996D01*
X94172362Y-102699500D01*
X94216657Y-102786433D01*
X94355483Y-102977510D01*
X94522490Y-103144517D01*
X94713567Y-103283343D01*
X94782343Y-103318386D01*
X94924003Y-103390566D01*
X94924005Y-103390566D01*
X94924008Y-103390568D01*
X95044412Y-103429689D01*
X95148631Y-103463553D01*
X95381903Y-103500500D01*
X95381908Y-103500500D01*
X95618092Y-103500500D01*
X95621412Y-103499974D01*
X95622688Y-103500139D01*
X95622956Y-103500118D01*
X95622960Y-103500174D01*
X95690706Y-103508921D01*
X95744163Y-103553911D01*
X95764810Y-103620660D01*
X95746093Y-103687976D01*
X95728504Y-103710126D01*
X92265105Y-107173526D01*
X92203782Y-107207011D01*
X92158026Y-107208318D01*
X92102352Y-107199500D01*
X91897648Y-107199500D01*
X91873329Y-107203351D01*
X91695465Y-107231522D01*
X91500776Y-107294781D01*
X91318386Y-107387715D01*
X91152786Y-107508028D01*
X91008028Y-107652786D01*
X90887715Y-107818386D01*
X90794781Y-108000776D01*
X90731522Y-108195465D01*
X90699500Y-108397648D01*
X87000500Y-108397648D01*
X87000500Y-97393713D01*
X88149500Y-97393713D01*
X88149500Y-97606286D01*
X88182753Y-97816239D01*
X88248444Y-98018414D01*
X88344951Y-98207820D01*
X88469890Y-98379786D01*
X88620213Y-98530109D01*
X88792179Y-98655048D01*
X88792181Y-98655049D01*
X88792184Y-98655051D01*
X88981588Y-98751557D01*
X89183757Y-98817246D01*
X89393713Y-98850500D01*
X89393714Y-98850500D01*
X89606286Y-98850500D01*
X89606287Y-98850500D01*
X89816243Y-98817246D01*
X90018412Y-98751557D01*
X90207816Y-98655051D01*
X90229789Y-98639086D01*
X90379786Y-98530109D01*
X90379788Y-98530106D01*
X90379792Y-98530104D01*
X90530104Y-98379792D01*
X90530106Y-98379788D01*
X90530109Y-98379786D01*
X90655048Y-98207820D01*
X90655047Y-98207820D01*
X90655051Y-98207816D01*
X90751557Y-98018412D01*
X90817246Y-97816243D01*
X90850500Y-97606287D01*
X90850500Y-97393713D01*
X90817246Y-97183757D01*
X90751557Y-96981588D01*
X90655051Y-96792184D01*
X90655049Y-96792181D01*
X90655048Y-96792179D01*
X90530109Y-96620213D01*
X90416181Y-96506285D01*
X90382696Y-96444962D01*
X90387680Y-96375270D01*
X90429552Y-96319337D01*
X90460529Y-96302422D01*
X90592086Y-96253354D01*
X90592093Y-96253350D01*
X90707187Y-96167190D01*
X90707190Y-96167187D01*
X90793350Y-96052093D01*
X90793354Y-96052086D01*
X90843596Y-95917379D01*
X90843598Y-95917372D01*
X90849999Y-95857844D01*
X90850000Y-95857827D01*
X90850000Y-95210000D01*
X89933012Y-95210000D01*
X89965925Y-95152993D01*
X90000000Y-95025826D01*
X90000000Y-94894174D01*
X89965925Y-94767007D01*
X89933012Y-94710000D01*
X90850000Y-94710000D01*
X90850000Y-94062172D01*
X90849999Y-94062155D01*
X90843598Y-94002627D01*
X90843596Y-94002620D01*
X90793354Y-93867913D01*
X90793350Y-93867906D01*
X90707190Y-93752812D01*
X90707187Y-93752809D01*
X90592093Y-93666649D01*
X90592086Y-93666645D01*
X90457379Y-93616403D01*
X90457372Y-93616401D01*
X90397844Y-93610000D01*
X89750000Y-93610000D01*
X89750000Y-94526988D01*
X89692993Y-94494075D01*
X89565826Y-94460000D01*
X89434174Y-94460000D01*
X89307007Y-94494075D01*
X89250000Y-94526988D01*
X89250000Y-93610000D01*
X88602155Y-93610000D01*
X88542627Y-93616401D01*
X88542620Y-93616403D01*
X88407913Y-93666645D01*
X88407906Y-93666649D01*
X88292812Y-93752809D01*
X88292809Y-93752812D01*
X88206649Y-93867906D01*
X88206645Y-93867913D01*
X88156403Y-94002620D01*
X88156401Y-94002627D01*
X88150000Y-94062155D01*
X88150000Y-94710000D01*
X89066988Y-94710000D01*
X89034075Y-94767007D01*
X89000000Y-94894174D01*
X89000000Y-95025826D01*
X89034075Y-95152993D01*
X89066988Y-95210000D01*
X88150000Y-95210000D01*
X88150000Y-95857844D01*
X88156401Y-95917372D01*
X88156403Y-95917379D01*
X88206645Y-96052086D01*
X88206649Y-96052093D01*
X88292809Y-96167187D01*
X88292812Y-96167190D01*
X88407906Y-96253350D01*
X88407913Y-96253354D01*
X88539470Y-96302422D01*
X88595404Y-96344293D01*
X88619821Y-96409758D01*
X88604969Y-96478031D01*
X88583819Y-96506285D01*
X88469889Y-96620215D01*
X88344951Y-96792179D01*
X88248444Y-96981585D01*
X88182753Y-97183760D01*
X88149500Y-97393713D01*
X87000500Y-97393713D01*
X87000500Y-86124500D01*
X87020185Y-86057461D01*
X87072989Y-86011706D01*
X87124500Y-86000500D01*
X114375500Y-86000500D01*
X114442539Y-86020185D01*
G37*
%TD.AperFunction*%
%TD*%
M02*
